
<svg xmlns="http://www.w3.org/2000/svg" version="1.1" xmlns:xlink="http://www.w3.org/1999/xlink" preserveAspectRatio="none" x="0px" y="0px" width="200px" height="200px" viewBox="0 0 200 200">
<defs>
<g id="black_0_Layer0_0_FILL">
<path fill="#000000" stroke="none" d="
M 192.3 86.6
Q 192.3 74.05 187.95 62.95 201.6 21.6 194.95 0.15 175.75 -1.85 143.6 19.8 124.15 11.1 100.3 11.1 99.6 11.1 98.9 11.1 98.6 11.1 98.25 11.1 97.55 11.1 96.85 11.1 73 11.1 53.55 19.8 21.4 -1.85 2.2 0.15 -4.45 21.6 9.2 62.95 4.85 74.05 4.85 86.6 4.85 117.85 31.8 139.95 46.45 151.95 64.35 157.45 65.4 156.75 66.55 156.1 79.5 148.8 97.8 148.8 98.05 148.8 98.25 148.8
L 98.9 148.8
Q 99.15 148.8 99.35 148.8 117.65 148.8 130.6 156.1 131.75 156.75 132.8 157.45 150.7 151.95 165.35 139.95 192.3 117.85 192.3 86.6
M 83.35 105.05
Q 37.35 101.95 41.3 61.4 87.75 60.75 83.35 105.05
M 155.85 61.4
Q 159.8 101.95 113.8 105.05 109.4 60.75 155.85 61.4 Z"/>
</g>
</defs>

<g transform="matrix( 1, 0, 0, 1, 1.45,21.3) ">
<g transform="matrix( 1, 0, 0, 1, 0,0) ">
<use xlink:href="#black_0_Layer0_0_FILL"/>
</g>
</g>
</svg>
